<?xml version="1.0" encoding="UTF-8"?>
<!DOCTYPE svg PUBLIC "-//W3C//DTD SVG 1.1//EN" "http://www.w3.org/Graphics/SVG/1.1/DTD/svg11.dtd">
<!-- Creator: CorelDRAW 2020 (64-Bit) -->
<svg xmlns="http://www.w3.org/2000/svg" xml:space="preserve" width="16.6952in" height="16.6952in" version="1.1" style="shape-rendering:geometricPrecision; text-rendering:geometricPrecision; image-rendering:optimizeQuality; fill-rule:evenodd; clip-rule:evenodd"
viewBox="0 0 16386.77 16386.77"
 xmlns:xlink="http://www.w3.org/1999/xlink"
 xmlns:xodm="http://www.corel.com/coreldraw/odm/2003">
 <defs>
  <style type="text/css">
   <![CDATA[
    .fil0 {fill:black}
    .fil2 {fill:white}
    .fil1 {fill:white;fill-rule:nonzero}
   ]]>
  </style>
 </defs>
 <g id="Layer_x0020_1">
  <metadata id="CorelCorpID_0Corel-Layer"/>
  <circle class="fil0" cx="8193.38" cy="8193.38" r="8193.38"/>
  <g id="_1911443691536">
   <g>
    <g>
     <path class="fil1" d="M8193.38 831.95c-4059.14,0 -7361.44,3302.29 -7361.44,7361.44 0,4059.14 3302.3,7361.44 7361.44,7361.44 4059.14,0 7361.44,-3302.3 7361.44,-7361.44 0,-4059.14 -3302.3,-7361.44 -7361.44,-7361.44zm-1960.09 879.2c-577.57,561.33 -1067.12,1367.14 -1429.14,2345.97 -417.52,-242.48 -809.82,-531.64 -1173.21,-864.22 737.16,-673.15 1623.36,-1185.14 2602.35,-1481.74zm-3024.7 1903.33c431.31,397.72 902.5,737.6 1403.87,1017.66 -290.71,969.9 -463.76,2078.15 -488.48,3266.79l-2695.65 0c70.91,-1648.32 733.2,-3145.52 1780.27,-4284.46zm-1780.27 4873.36l2695.65 0c24.58,1181.94 195.65,2284.66 483.43,3250.67 -503.19,281.63 -975.82,623.66 -1408.26,1023.83 -1041.71,-1137.71 -1700.12,-2631.05 -1770.82,-4274.5zm2192.45 4696.32c364.55,-335.04 758.53,-626.11 1177.84,-870.16 362.58,985.75 854.05,1797.31 1434.67,2361.6 -983.6,-297.95 -1873.3,-813.59 -2612.52,-1491.44zm4278.15 1754.61c-1044.19,-179.32 -1973.34,-1298.84 -2555.78,-2908.55 795.19,-369.78 1658.84,-581.07 2555.78,-619.35l0 3527.9zm0 -4124.01c-960.19,37.53 -1887,258.66 -2741.4,645.79 -260.54,-893.62 -419.72,-1905.45 -444.61,-2972.7l3186.01 0 0 2326.91zm0 -2915.82l-3186.02 0c25.03,-1073.95 186.2,-2091.73 449.63,-2989.44 853.04,385.73 1778.09,606.1 2736.38,643.58l0.01 2345.87zm0 -2941.99c-894.69,-38.22 -1756.28,-248.46 -2549.8,-616.51 582.81,-1601.01 1509.13,-2713.71 2549.8,-2892.43l0 3508.94zm7059.51 2941.99l-2695.65 0c-24.74,-1188.67 -197.79,-2296.98 -488.52,-3266.92 501.4,-280.04 972.51,-620.04 1403.75,-1017.69 1047.16,1138.97 1709.48,2636.23 1780.43,4284.61zm-2202.48 -4705.89c-363.38,332.49 -755.84,621.47 -1173.38,863.92 -362.04,-978.76 -851.57,-1784.51 -1429.11,-2345.84 979.06,296.63 1865.32,808.71 2602.49,1481.92zm-4268.13 -1745.04c1040.63,178.68 1966.97,1291.36 2549.77,2892.31 -793.65,368.08 -1655.29,578.47 -2549.77,616.66l0 -3508.97zm0 4105.05c958.06,-37.47 1883.23,-257.85 2736.38,-643.63 263.44,897.74 424.6,1915.53 449.64,2989.48l-3186.01 0 0 -2345.85zm0 2934.78l3186.02 0c-24.88,1067.28 -184.1,2079.11 -444.61,2972.72 -854.53,-387.19 -1781.46,-608.31 -2741.4,-645.84l-0.01 -2326.88zm0 6450.93l0 -3527.96c896.73,38.31 1760.43,249.68 2555.75,619.5 -582.45,1609.68 -1511.59,2729.14 -2555.75,2908.46zm1665.64 -263.14c580.59,-564.26 1072.04,-1375.79 1434.64,-2361.51 419.37,244.03 813.47,534.93 1178.05,869.87 -739.24,677.93 -1629,1193.62 -2612.69,1491.64zm3034.03 -1913.14c-432.41,-400.14 -904.98,-742.26 -1408.17,-1023.85 287.78,-966.05 458.87,-2068.8 483.46,-3250.8l2695.65 0c-70.73,1643.51 -729.17,3136.94 -1770.94,4274.65z"/>
    </g>
   </g>
   <g>
   </g>
   <g>
   </g>
   <g>
   </g>
   <g>
   </g>
   <g>
   </g>
   <g>
   </g>
   <g>
   </g>
   <g>
   </g>
   <g>
   </g>
   <g>
   </g>
   <g>
   </g>
   <g>
   </g>
   <g>
   </g>
   <g>
   </g>
   <g>
   </g>
  </g>
  <g id="_1911443696432">
   <path class="fil2" d="M2990.33 4024.95l8324.88 0c1144.67,0 2081.22,936.55 2081.22,2081.22l0 4828.56c0,1144.67 -936.55,2081.22 -2081.22,2081.22l-6243.67 0c-1144.67,0 -2081.21,-936.54 -2081.21,-2081.22l0 -6909.78z"/>
   <path class="fil0" d="M3956.93 4991.56l966.62 0 0 2987.72 2987.72 -2987.72 248.51 0 -2987.72 2987.72 2987.74 2987.73 -248.51 0 -2987.74 -2987.73 0 2987.72 -966.62 0 0 -5975.45zm6363.9 6075.36l0 798.83c-406.1,-36.29 -773.77,-263.42 -1050.82,-505.58l0.52 -0.52 -483.59 -483.59 -98.06 -98.06 -42.24 -42.24 -2756.48 -2756.47 2987.72 -2987.72 -248.51 0 -2987.72 2987.72 2880.73 2880.73 -2.25 2.25 623.89 623.89c309.1,274.24 721.42,518.57 1176.8,555.89l0 0.14c57.89,4.74 116.51,7.17 175.75,7.17 1067.69,0 1933.23,-786.85 1933.23,-1757.48 0,-586.72 -316.26,-1106.29 -802.23,-1425.5l-790.33 -304.78 -651.88 -251.39c-282.05,-108.77 -479.65,-324.67 -479.65,-654.56 0,-329.89 307.14,-667.63 702.17,-707.31l0 -0.05 0.53 0c28.95,-2.89 58.37,-4.43 88.17,-4.43l0 -694.19c583.41,0 1092.97,280.81 1367.16,698.62l205.07 0c-288.51,-518.42 -884.14,-874.37 -1572.23,-874.37 -970.62,0 -1757.47,708.17 -1757.47,1581.74 0,485.87 243.41,920.58 626.48,1210.73l672.04 316.53 864.76 407.29c0.36,0.17 0.71,0.33 1.07,0.5 280.48,132.1 471.87,330.46 471.87,701.18 0,370.72 -393.43,790.88 -878.74,790.88 -60.19,0 -118.96,-5.45 -175.75,-15.82z"/>
  </g>
 </g>
</svg>
